<svg width="40" height="39" viewBox="0 0 40 39" fill="none" xmlns="http://www.w3.org/2000/svg">
<g clip-path="url(#clip0_753_1055)">
<path d="M0 36.42V10.72C0.125852 10.1122 0.483191 9.57723 0.996426 9.22823C1.50966 8.87923 2.13853 8.74357 2.75 8.84995H35.1C35.4384 8.81008 35.7814 8.84723 36.1033 8.95861C36.4253 9.07 36.718 9.25274 36.9594 9.49318C37.2008 9.73361 37.3847 10.0255 37.4973 10.347C37.61 10.6686 37.6485 11.0114 37.61 11.35C37.61 13.16 37.61 14.96 37.61 16.77C37.61 16.91 37.61 17.04 37.61 17.2H24.46C23.9414 17.174 23.4229 17.2544 22.9365 17.4361C22.45 17.6179 22.0059 17.8971 21.6313 18.2567C21.2567 18.6163 20.9596 19.0487 20.7581 19.5273C20.5567 20.006 20.4553 20.5207 20.46 21.04C20.46 22.72 20.46 24.4 20.46 26.04C20.4794 26.5998 20.6193 27.149 20.87 27.65C21.1822 28.3289 21.6917 28.8981 22.332 29.2834C22.9723 29.6687 23.7139 29.8522 24.46 29.81H37.58C37.5863 29.8765 37.5863 29.9434 37.58 30.01C37.58 32.01 37.58 34.01 37.58 36.01C37.5911 36.324 37.5353 36.6369 37.4165 36.9278C37.2977 37.2187 37.1184 37.4811 36.8906 37.6975C36.6628 37.914 36.3916 38.0797 36.095 38.1835C35.7984 38.2874 35.4831 38.327 35.17 38.3C24.25 38.3 13.3233 38.3 2.39 38.3C1.92782 38.2805 1.4748 38.1647 1.06 37.96C0.784931 37.7923 0.548344 37.5684 0.365688 37.3031C0.183033 37.0377 0.0584226 36.7368 0 36.42Z" fill="#fff"/>
<path d="M31.0102 28.2401C28.9202 28.2401 26.8202 28.2401 24.7302 28.2401C24.3706 28.285 24.0055 28.2475 23.6625 28.1306C23.3195 28.0136 23.0075 27.8201 22.7503 27.5648C22.4931 27.3095 22.2973 26.9991 22.1777 26.6569C22.0582 26.3148 22.018 25.95 22.0602 25.5901C22.0602 24.1401 22.0602 22.6801 22.0602 21.2201C22.031 20.8875 22.0752 20.5525 22.1896 20.2389C22.3041 19.9253 22.486 19.6406 22.7225 19.405C22.9591 19.1694 23.2445 18.9887 23.5586 18.8755C23.8727 18.7623 24.2078 18.7195 24.5402 18.7501H37.4602C37.7897 18.7212 38.1214 18.7647 38.4323 18.8775C38.7431 18.9903 39.0256 19.1697 39.2599 19.403C39.4942 19.6364 39.6747 19.9181 39.7888 20.2285C39.9028 20.5389 39.9477 20.8705 39.9202 21.2001V25.7601C39.9513 26.093 39.9083 26.4288 39.7945 26.7432C39.6807 27.0577 39.4989 27.3431 39.2619 27.5791C39.025 27.8151 38.7388 27.9958 38.4239 28.1083C38.109 28.2209 37.7731 28.2624 37.4402 28.2301L31.0102 28.2401ZM27.5402 22.0901C27.2958 22.0416 27.0429 22.0606 26.8085 22.1452C26.5742 22.2298 26.3673 22.3767 26.2102 22.5701C25.9572 23.2127 25.9572 23.9274 26.2102 24.5701C26.5602 25.2701 28.5002 25.2701 28.8302 24.5701C28.9658 24.2752 29.036 23.9546 29.036 23.6301C29.036 23.3055 28.9658 22.9849 28.8302 22.6901C28.6102 22.1301 28.0802 22.0501 27.5402 22.0901Z" fill="#fff"/>
<path d="M33.0396 7.27005H14.6396C14.7896 7.21005 14.8696 7.16005 14.9496 7.14005L29.4396 3.14005C29.742 3.03357 30.0636 2.9932 30.3828 3.02167C30.7021 3.05015 31.0115 3.1468 31.2902 3.30511C31.5689 3.46341 31.8104 3.67968 31.9983 3.9393C32.1863 4.19893 32.3163 4.49586 32.3797 4.81005C32.5997 5.65005 32.8096 6.42005 33.0396 7.27005Z" fill="#fff"/>
<path d="M25.2396 2.92997L21.5796 3.92997C17.6396 4.99997 13.7096 6.09997 9.74961 7.12997C8.95713 7.26768 8.15396 7.33461 7.34961 7.32997V7.19997L7.66961 7.02997L21.1696 0.329966C21.4532 0.150529 21.7729 0.0359087 22.1059 -0.00571242C22.4389 -0.0473336 22.777 -0.0149294 23.0961 0.0891872C23.4151 0.193304 23.7072 0.366565 23.9515 0.596604C24.1959 0.826643 24.3865 1.10779 24.5096 1.41997C24.7396 1.92997 24.9796 2.41997 25.2396 2.92997Z" fill="#fff"/>
</g>
<defs>
<clipPath id="clip0_753_1055">
<rect width="39.92" height="38.32" fill="white"/>
</clipPath>
</defs>
</svg>
