<svg width="17" height="17" viewBox="0 0 17 17" fill="none" xmlns="http://www.w3.org/2000/svg">
<path d="M14.0457 4.26165C14.0457 3.73956 13.6196 3.318 13.0958 3.318C12.572 3.318 12.1455 3.73956 12.1455 4.26165C12.1455 4.78181 12.572 5.20337 13.0958 5.20337C13.6196 5.20337 14.0457 4.78181 14.0457 4.26165Z" fill="white"/>
<path d="M15.3114 11.6281C15.2762 12.3939 15.1472 12.8101 15.0401 13.0864C14.8963 13.4529 14.7247 13.7149 14.4463 13.9897C14.1711 14.2646 13.9073 14.4346 13.5382 14.5759C13.2599 14.6838 12.8393 14.8123 12.0681 14.8488C11.2342 14.8852 10.9872 14.893 8.87275 14.893C6.76028 14.893 6.51125 14.8852 5.67744 14.8488C4.9062 14.8123 4.48754 14.6838 4.20919 14.5759C3.83822 14.4346 3.57633 14.2646 3.29956 13.9897C3.02083 13.7149 2.84923 13.4529 2.70733 13.0864C2.6002 12.8101 2.46927 12.3939 2.43602 11.6281C2.39539 10.8001 2.38794 10.5509 2.38794 8.45551C2.38794 6.35587 2.39539 6.10858 2.43602 5.2806C2.46927 4.51475 2.6002 4.09902 2.70733 3.82029C2.84923 3.45425 3.02083 3.19377 3.29956 2.91894C3.57633 2.64452 3.83822 2.47409 4.20919 2.33126C4.48754 2.22296 4.9062 2.09641 5.67744 2.05993C6.51125 2.02342 6.76028 2.01411 8.87275 2.01411C10.9872 2.01411 11.2342 2.02342 12.0681 2.05993C12.8393 2.09641 13.2599 2.22296 13.5382 2.33126C13.9073 2.47409 14.1711 2.64452 14.4463 2.91894C14.7247 3.19377 14.8963 3.45425 15.0401 3.82029C15.1472 4.09902 15.2762 4.51475 15.3114 5.2806C15.3501 6.10858 15.3595 6.35587 15.3595 8.45551C15.3595 10.5509 15.3501 10.8001 15.3114 11.6281ZM16.7355 5.21618C16.6968 4.37926 16.5639 3.80748 16.3665 3.30947C16.1656 2.7928 15.8962 2.35493 15.4553 1.91707C15.0163 1.48116 14.5753 1.2137 14.055 1.01186C13.5516 0.817759 12.9777 0.684216 12.1345 0.647738C11.2913 0.607358 11.022 0.599992 8.87275 0.599992C6.72548 0.599992 6.4542 0.607358 5.61101 0.647738C4.76975 0.684216 4.19629 0.817759 3.69046 1.01186C3.17212 1.2137 2.73117 1.48116 2.29219 1.91707C1.85124 2.35493 1.5819 2.7928 1.37901 3.30947C1.18355 3.80748 1.05065 4.37926 1.00998 5.21618C0.973249 6.05347 0.963867 6.32131 0.963867 8.45551C0.963867 10.5878 0.973249 10.8552 1.00998 11.6925C1.05065 12.5279 1.18355 13.0992 1.37901 13.5996C1.5819 14.1143 1.85124 14.5541 2.29219 14.9901C2.73117 15.426 3.17212 15.6954 3.69046 15.8968C4.19629 16.0909 4.76975 16.2229 5.61101 16.2613C6.4542 16.2998 6.72548 16.3091 8.87275 16.3091C11.022 16.3091 11.2913 16.2998 12.1345 16.2613C12.9777 16.2229 13.5516 16.0909 14.055 15.8968C14.5753 15.6954 15.0163 15.426 15.4553 14.9901C15.8962 14.5541 16.1656 14.1143 16.3665 13.5996C16.5639 13.0992 16.6968 12.5279 16.7355 11.6925C16.7742 10.8552 16.7836 10.5878 16.7836 8.45551C16.7836 6.32131 16.7742 6.05347 16.7355 5.21618Z" fill="white"/>
<path d="M8.87189 11.0714C7.41653 11.0714 6.2356 9.9006 6.2356 8.45543C6.2356 7.00792 7.41653 5.83565 8.87189 5.83565C10.3277 5.83565 11.5101 7.00792 11.5101 8.45543C11.5101 9.9006 10.3277 11.0714 8.87189 11.0714ZM8.87189 4.41958C6.62846 4.41958 4.81152 6.22769 4.81152 8.45543C4.81152 10.6812 6.62846 12.4874 8.87189 12.4874C11.1153 12.4874 12.9342 10.6812 12.9342 8.45543C12.9342 6.22769 11.1153 4.41958 8.87189 4.41958Z" fill="white"/>
</svg>
