<svg width="37" height="33" viewBox="0 0 37 33" fill="none" xmlns="http://www.w3.org/2000/svg">
<path d="M36.4312 1.82079L30.6696 30.7745C30.5546 31.0533 30.3815 31.3046 30.1617 31.5116C29.942 31.7187 29.6805 31.8768 29.3947 31.9755C29.1089 32.0742 28.8054 32.1112 28.5042 32.084C28.203 32.0569 27.911 31.9662 27.6476 31.818L14.3507 21.6583L9.51576 19.334L1.37656 16.6035C1.37656 16.6035 0.127026 16.1619 0.00673604 15.1979C-0.113554 14.2339 1.41707 13.7115 1.41707 13.7115L33.7726 1.06233C33.7726 1.06233 36.4312 -0.103508 36.4312 1.82079Z" fill="white"/>
<path d="M13.331 30.4529C13.331 30.4529 12.9432 30.4162 12.4595 28.8907C11.9759 27.3652 9.51367 19.3328 9.51367 19.3328L29.0559 6.96379C29.0559 6.96379 30.1839 6.28117 30.1434 6.96379C30.1434 6.96379 30.3447 7.08612 29.7408 7.6464C29.1369 8.20668 14.3891 21.4198 14.3891 21.4198" fill="#D9D9D9"/>
<path d="M19.4489 25.5564L14.1893 30.3359C14.0666 30.424 13.9241 30.4807 13.7743 30.501C13.6244 30.5213 13.4719 30.5045 13.3301 30.4521L14.3366 21.5745" fill="#9F9F9F"/>
</svg>
