<svg width="18" height="17" viewBox="0 0 18 17" fill="none" xmlns="http://www.w3.org/2000/svg">
<path d="M0.818359 2.42477C0.818359 1.89583 1.01001 1.45947 1.3933 1.11568C1.77659 0.771871 2.27488 0.599976 2.88814 0.599976C3.49046 0.599976 3.97778 0.769221 4.35013 1.10774C4.73342 1.45684 4.92507 1.9117 4.92507 2.47237C4.92507 2.98014 4.73891 3.40327 4.36656 3.74179C3.98327 4.09088 3.47951 4.26543 2.85529 4.26543H2.83886C2.23654 4.26543 1.74922 4.09088 1.37687 3.74179C1.00452 3.3927 0.818359 2.95369 0.818359 2.42477ZM1.03191 16.3091V5.7094H4.67867V16.3091H1.03191ZM6.69917 16.3091H10.3459V10.3904C10.3459 10.0201 10.3897 9.73451 10.4773 9.53353C10.6307 9.17385 10.8634 8.86972 11.1755 8.62113C11.4876 8.37253 11.8791 8.24824 12.35 8.24824C13.5765 8.24824 14.1898 9.04691 14.1898 10.6443V16.3091H17.8366V10.2317C17.8366 8.66609 17.4533 7.47865 16.6867 6.6694C15.9201 5.86014 14.9071 5.45551 13.6477 5.45551C12.235 5.45551 11.1344 6.04262 10.3459 7.21684V7.24857H10.3295L10.3459 7.21684V5.7094H6.69917C6.72107 6.0479 6.73202 7.10046 6.73202 8.86708C6.73202 10.6337 6.72107 13.1143 6.69917 16.3091Z" fill="white"/>
</svg>
