<svg width="30" height="30" viewBox="0 0 30 30" fill="none" xmlns="http://www.w3.org/2000/svg">
<rect x="0.5" y="1.19037" width="29" height="27.8387" rx="3.5" stroke="white"/>
<path d="M6.81885 8.93125C6.81885 8.44235 7.00313 8.03901 7.37167 7.72124C7.74022 7.40345 8.21934 7.24457 8.80902 7.24457C9.38818 7.24457 9.85675 7.401 10.2148 7.71391C10.5833 8.03658 10.7676 8.45702 10.7676 8.97525C10.7676 9.44459 10.5886 9.8357 10.2306 10.1486C9.86203 10.4713 9.37764 10.6326 8.77743 10.6326H8.76163C8.18248 10.6326 7.7139 10.4713 7.35588 10.1486C6.99785 9.82593 6.81885 9.42014 6.81885 8.93125ZM7.02418 21.7647V11.9673H10.5307V21.7647H7.02418ZM12.4735 21.7647H15.98V16.294C15.98 15.9518 16.0221 15.6878 16.1063 15.502C16.2537 15.1695 16.4775 14.8884 16.7776 14.6587C17.0777 14.4289 17.4542 14.314 17.907 14.314C19.0863 14.314 19.676 15.0522 19.676 16.5287V21.7647H23.1825V16.1473C23.1825 14.7002 22.8139 13.6026 22.0768 12.8546C21.3397 12.1066 20.3657 11.7326 19.1548 11.7326C17.7964 11.7326 16.7381 12.2753 15.98 13.3606V13.39H15.9642L15.98 13.3606V11.9673H12.4735C12.4945 12.2802 12.5051 13.2531 12.5051 14.886C12.5051 16.5189 12.4945 18.8118 12.4735 21.7647Z" fill="white"/>
</svg>
