<svg width="40" height="40" viewBox="0 0 40 40" fill="none" xmlns="http://www.w3.org/2000/svg">
<g clip-path="url(#clip0_753_1065)">
<path d="M39.9882 39.9886H28.54V18.3787C28.5313 18.2481 28.5526 18.1172 28.6022 17.9961C28.6518 17.8749 28.7284 17.7668 28.8262 17.6798C29.4215 17.1183 29.971 16.534 30.5777 15.9611C30.7278 15.8115 30.9273 15.7219 31.1387 15.709H37.3894C37.5746 15.7146 37.7523 15.7833 37.8931 15.9038C38.5342 16.511 39.1524 17.1412 39.7592 17.7714C39.8773 17.8967 39.9499 18.0582 39.9653 18.2298V39.8854C39.97 39.9204 39.9777 39.9549 39.9882 39.9886Z" fill="#fff"/>
<path d="M14.3214 16.3048L2.5069 28.118L0.526367 26.1358L14.2642 12.3861L19.828 17.9662L34.9167 2.85305H31.4823V0H39.9311V8.52478H37.1606V4.98425L20.0913 22.0682L14.3214 16.3048Z" fill="#fff"/>
<path d="M25.7014 39.9885H14.2532V26.9722C14.244 26.8426 14.2638 26.7125 14.3114 26.5916C14.3589 26.4706 14.4329 26.3619 14.5279 26.2733C15.1347 25.6889 15.6727 25.1275 16.3138 24.5087C16.4585 24.3767 16.6449 24.2996 16.8405 24.291C18.924 24.291 21.0076 24.291 23.0912 24.291C23.2908 24.2969 23.4816 24.3741 23.6292 24.5087C24.2589 25.1045 24.8657 25.7118 25.461 26.342C25.5858 26.4777 25.6622 26.651 25.6785 26.8347C25.6785 31.1429 25.6785 35.4397 25.6785 39.7479C25.6905 39.8276 25.6981 39.908 25.7014 39.9885Z" fill="#fff"/>
<path d="M11.3791 39.9885H0.0224609C0.0224609 39.8625 0.0224609 39.7364 0.0224609 39.5989C0.0224609 37.3073 0.0224609 34.9852 0.0224609 32.6324C0.0353767 32.4073 0.124164 32.1932 0.274323 32.0252C0.846733 31.4179 1.41914 30.8221 2.03735 30.2606C2.19323 30.1128 2.39555 30.0237 2.60976 30.0085H8.86047C9.06065 30.0214 9.25046 30.1023 9.39854 30.2377C10.0167 30.8221 10.6235 31.4408 11.2302 32.0595C11.3451 32.1686 11.4181 32.3146 11.4363 32.472C11.4363 34.947 11.4363 37.4104 11.4363 39.8854C11.4231 39.9227 11.4038 39.9576 11.3791 39.9885Z" fill="#fff"/>
</g>
<defs>
<clipPath id="clip0_753_1065">
<rect width="40" height="40" fill="white"/>
</clipPath>
</defs>
</svg>
