<svg width="24" height="24" viewBox="0 0 24 24" fill="none" xmlns="http://www.w3.org/2000/svg">
<rect x="0.5" y="0.5" width="23" height="23" rx="3.5" stroke="#2E73EA"/>
<path d="M5.45459 6.85827C5.45459 6.4514 5.60201 6.11574 5.89685 5.85128C6.19169 5.58682 6.57499 5.45459 7.04673 5.45459C7.51005 5.45459 7.88491 5.58478 8.17133 5.84518C8.46617 6.11371 8.61359 6.46361 8.61359 6.89489C8.61359 7.28548 8.47039 7.61097 8.18397 7.87137C7.88913 8.1399 7.50162 8.27417 7.02146 8.27417H7.00882C6.54549 8.27417 6.17063 8.1399 5.88421 7.87137C5.59779 7.60284 5.45459 7.26514 5.45459 6.85827ZM5.61886 17.5385V9.38491H8.42405V17.5385H5.61886ZM9.97828 17.5385H12.7835V12.9857C12.7835 12.7009 12.8172 12.4811 12.8846 12.3265C13.0025 12.0499 13.1815 11.8159 13.4216 11.6247C13.6617 11.4335 13.9628 11.3379 14.3251 11.3379C15.2686 11.3379 15.7403 11.9522 15.7403 13.181V17.5385H18.5455V12.8636C18.5455 11.6593 18.2507 10.7459 17.661 10.1234C17.0713 9.50086 16.2921 9.18961 15.3233 9.18961C14.2366 9.18961 13.39 9.64123 12.7835 10.5445V10.5689H12.7708L12.7835 10.5445V9.38491H9.97828C9.99513 9.6453 10.0036 10.455 10.0036 11.8139C10.0036 13.1728 9.99513 15.081 9.97828 17.5385Z" fill="#2E73EA"/>
</svg>
