<svg width="38" height="39" viewBox="0 0 38 39" fill="none" xmlns="http://www.w3.org/2000/svg">
<g clip-path="url(#clip0_753_1060)">
<path d="M6.18016 38.89C5.82774 38.7045 5.54132 38.4146 5.36016 38.06L0.280158 29.24C0.155819 29.1033 0.067563 28.9377 0.0233938 28.7583C-0.0207753 28.5789 -0.0194605 28.3913 0.0272191 28.2125C0.0738988 28.0338 0.164466 27.8695 0.290709 27.7346C0.416951 27.5997 0.574875 27.4984 0.750158 27.44L5.65016 24.63C5.78248 24.5222 5.93845 24.4474 6.10528 24.4115C6.27212 24.3757 6.44507 24.3799 6.60996 24.4238C6.77485 24.4677 6.92699 24.5501 7.05392 24.6641C7.18084 24.7782 7.27893 24.9207 7.34016 25.08C9.08016 28.08 10.8302 31.08 12.5602 34.08C12.6643 34.2107 12.7367 34.3639 12.7716 34.5274C12.8065 34.6908 12.8029 34.8602 12.7612 35.0221C12.7196 35.184 12.6409 35.334 12.5314 35.4603C12.4218 35.5866 12.2845 35.6857 12.1302 35.75L6.71016 38.89H6.18016Z" fill="#fff"/>
<path d="M19.3303 33.05C17.8603 33.05 16.3803 33.05 14.9103 33.05C14.8024 33.0661 14.6923 33.0465 14.5966 32.9941C14.5009 32.9418 14.4249 32.8596 14.3803 32.76C12.967 30.3 11.5503 27.8467 10.1303 25.4C10.0627 25.3051 10.0264 25.1915 10.0264 25.075C10.0264 24.9585 10.0627 24.8449 10.1303 24.75C10.7307 23.727 11.5575 22.8553 12.5474 22.2017C13.5372 21.5482 14.6637 21.1302 15.8403 20.98C16.9382 20.8076 18.0614 20.8991 19.1169 21.2469C20.1724 21.5946 21.13 22.1887 21.9103 22.98C22.0424 23.0829 22.2031 23.1422 22.3703 23.15C23.7203 23.15 25.0703 23.15 26.4203 23.15C26.6173 23.15 26.8124 23.1888 26.9944 23.2642C27.1763 23.3396 27.3417 23.4501 27.481 23.5894C27.6203 23.7286 27.7308 23.894 27.8061 24.076C27.8815 24.258 27.9203 24.453 27.9203 24.65C27.9203 24.847 27.8815 25.0421 27.8061 25.224C27.7308 25.406 27.6203 25.5714 27.481 25.7107C27.3417 25.85 27.1763 25.9605 26.9944 26.0358C26.8124 26.1112 26.6173 26.15 26.4203 26.15H20.7903C20.6026 26.1413 20.4157 26.1799 20.2468 26.2623C20.0779 26.3447 19.9325 26.4684 19.8239 26.6217C19.7153 26.7751 19.6471 26.9534 19.6255 27.1401C19.6039 27.3268 19.6296 27.5159 19.7003 27.69C19.7733 27.8964 19.9089 28.0748 20.0882 28.2003C20.2674 28.3258 20.4815 28.3921 20.7003 28.39C22.5903 28.39 24.4803 28.39 26.3703 28.39C27.1618 28.3716 27.9276 28.1059 28.5603 27.63L35.2703 22.73C35.4717 22.5701 35.7082 22.4604 35.9603 22.4099C36.2124 22.3595 36.473 22.3698 36.7203 22.44C37.0008 22.5199 37.2534 22.6762 37.45 22.8916C37.6466 23.1069 37.7793 23.3728 37.8333 23.6593C37.8872 23.9459 37.8604 24.2418 37.7556 24.5139C37.6509 24.786 37.4725 25.0236 37.2403 25.2C36.2403 25.96 35.1803 26.71 34.1503 27.46C32.4303 28.7 30.7103 29.95 28.9803 31.18C27.1892 32.4653 25.0236 33.1227 22.8203 33.05C21.6603 33.02 20.4903 33.05 19.3303 33.05Z" fill="#fff"/>
<path d="M22.6397 19.98C20.6618 19.98 18.7284 19.3935 17.084 18.2947C15.4395 17.1959 14.1577 15.6341 13.4009 13.8068C12.644 11.9796 12.4459 9.96889 12.8318 8.02908C13.2177 6.08927 14.1701 4.30744 15.5686 2.90892C16.9671 1.51039 18.7489 0.557984 20.6888 0.172132C22.6286 -0.21372 24.6392 -0.0156868 26.4665 0.74119C28.2937 1.49807 29.8555 2.77979 30.9543 4.42428C32.0532 6.06877 32.6397 8.00217 32.6397 9.97999C32.6397 12.6322 31.5861 15.1757 29.7107 17.0511C27.8354 18.9264 25.2918 19.98 22.6397 19.98ZM22.6397 0.979985C20.8596 0.979985 19.1196 1.50783 17.6395 2.49676C16.1595 3.48569 15.0059 4.8913 14.3247 6.53583C13.6435 8.18037 13.4653 9.98997 13.8126 11.7358C14.1599 13.4816 15.017 15.0853 16.2757 16.3439C17.5344 17.6026 19.138 18.4598 20.8838 18.8071C22.6297 19.1543 24.4393 18.9761 26.0838 18.2949C27.7283 17.6137 29.1339 16.4602 30.1229 14.9801C31.1118 13.5001 31.6397 11.76 31.6397 9.97999C31.6344 7.5965 30.6838 5.31245 28.9966 3.62895C27.3093 1.94544 25.0231 0.999979 22.6397 0.999985V0.979985Z" fill="#fff"/>
<path d="M22.6401 17.76C26.9314 17.76 30.4101 14.2812 30.4101 9.98997C30.4101 5.69872 26.9314 2.21997 22.6401 2.21997C18.3489 2.21997 14.8701 5.69872 14.8701 9.98997C14.8701 14.2812 18.3489 17.76 22.6401 17.76Z" fill="#fff"/>
</g>
<defs>
<clipPath id="clip0_753_1060">
<rect width="37.86" height="38.9" fill="white"/>
</clipPath>
</defs>
</svg>
