<svg width="40" height="40" viewBox="0 0 40 40" fill="none" xmlns="http://www.w3.org/2000/svg">
<g clip-path="url(#clip0_753_1051)">
<path d="M20.5503 40.0131C19.6728 39.4891 19.5418 39.1486 19.7252 38.127C19.9871 36.6994 20.236 35.2848 20.4717 33.8572C20.539 33.4054 20.7503 32.9874 21.0742 32.6653C25.0821 28.6837 29.0856 24.6889 33.0847 20.681C33.4369 20.3209 33.8381 20.0123 34.2766 19.7642C34.7082 19.5106 35.2123 19.4089 35.7085 19.4754C36.2047 19.5419 36.6643 19.7727 37.014 20.1309C37.7822 20.8336 38.5124 21.5769 39.2013 22.3575C39.5363 22.8341 39.8051 23.3541 40.0002 23.903V24.8461C39.8408 25.4733 39.5254 26.05 39.0834 26.5225C35.0144 30.5828 30.941 34.6474 26.8633 38.7164C26.6078 38.9488 26.2965 39.1113 25.9596 39.1879C25.344 39.3451 24.6498 39.4106 24.0866 39.5284L21.179 40.0785L20.5503 40.0131Z" fill="#fff"/>
<path d="M19.6983 29.1421C18.9401 29.9457 18.2644 30.8233 17.6812 31.7616C17.2814 32.7989 16.9874 33.874 16.8037 34.9705H4.78013C4.14714 34.9964 3.51565 34.8907 2.92552 34.6603C2.33539 34.4299 1.79943 34.0796 1.35146 33.6316C0.903489 33.1837 0.553236 32.6477 0.3228 32.0576C0.0923633 31.4675 -0.0132568 30.836 0.0126126 30.203C0.0126126 23.3529 0.0126126 16.4898 0.0126126 9.62668C0.00110259 8.9989 0.118686 8.37544 0.358064 7.79498C0.597441 7.21451 0.953511 6.68941 1.4042 6.25223C1.85488 5.81505 2.39058 5.47512 2.97806 5.25351C3.56554 5.0319 4.19228 4.93334 4.81943 4.96394H5.00279V6.95478C4.98821 8.06742 5.37883 9.14738 6.1018 9.99325C6.82477 10.8391 7.83073 11.3932 8.93206 11.552C9.21523 11.5785 9.50024 11.5785 9.78341 11.552H18.6505C19.2695 11.5682 19.8854 11.4583 20.4607 11.2292C21.036 11.0001 21.5588 10.6565 21.9973 10.2193C22.4358 9.782 22.7808 9.26019 23.0116 8.68552C23.2423 8.11084 23.3538 7.49528 23.3394 6.87619C23.3394 6.24751 23.3394 5.63192 23.3394 5.01633C24.3163 4.90876 25.3013 5.12639 26.142 5.6355C26.9826 6.14461 27.6318 6.91677 27.989 7.83231C28.2065 8.43318 28.3217 9.06629 28.3296 9.70527C28.3296 13.2416 28.3296 16.778 28.3296 20.3274C28.3272 20.5387 28.2427 20.7407 28.0938 20.8906C26.2733 22.7505 24.4265 24.5841 22.5797 26.4178C22.4324 26.5509 22.2413 26.6255 22.0427 26.6273H6.32565C5.97828 26.6273 5.64513 26.7653 5.39951 27.011C5.15388 27.2566 5.01589 27.5897 5.01589 27.9371C5.03913 28.2683 5.18732 28.5784 5.43047 28.8045C5.67363 29.0306 5.99359 29.156 6.32565 29.1552H19.6721L19.6983 29.1421ZM14.158 21.2835H6.29945C5.98551 21.2795 5.68057 21.3883 5.44017 21.5903C5.19977 21.7922 5.0399 22.0738 4.98969 22.3837C4.97956 22.6794 5.06985 22.9698 5.24584 23.2077C5.42184 23.4455 5.67317 23.6167 5.95891 23.6935C6.11548 23.7129 6.27386 23.7129 6.43043 23.6935H22.1475C22.4073 23.6635 22.6522 23.5564 22.8506 23.386C23.0491 23.2156 23.1919 22.9897 23.2608 22.7374C23.2957 22.5467 23.2879 22.3507 23.2379 22.1635C23.1879 21.9763 23.097 21.8025 22.9717 21.6546C22.8464 21.5068 22.6899 21.3886 22.5134 21.3086C22.3369 21.2285 22.1448 21.1887 21.9511 21.1918L14.158 21.2835ZM14.158 15.8742H6.22087C5.95637 15.8992 5.70574 16.0041 5.50222 16.1748C5.2987 16.3456 5.15193 16.5742 5.08138 16.8303C5.02049 17.0817 5.04391 17.346 5.14805 17.5827C5.25219 17.8193 5.43126 18.0152 5.65767 18.1401C5.90822 18.271 6.18705 18.3385 6.46972 18.3366H21.938C22.0901 18.3566 22.2442 18.3566 22.3964 18.3366C22.619 18.2743 22.8183 18.148 22.9697 17.9734C23.1211 17.7987 23.2177 17.5834 23.2477 17.3543C23.3021 17.161 23.3085 16.9575 23.2662 16.7612C23.2239 16.565 23.1343 16.3821 23.0052 16.2284C22.8761 16.0747 22.7113 15.955 22.5253 15.8795C22.3393 15.8041 22.1377 15.7753 21.938 15.7956L14.158 15.8742Z" fill="#fff"/>
<path d="M9.74475 3.35292C9.98042 2.52469 10.4325 1.77422 11.0545 1.17872C11.6074 0.669513 12.277 0.304057 13.0043 0.114541C13.7317 -0.0749749 14.4944 -0.0827371 15.2255 0.091939C15.9565 0.266615 16.6334 0.61837 17.1965 1.11622C17.7596 1.61408 18.1917 2.24276 18.4546 2.9469C18.5594 3.23504 18.6904 3.35292 19.0047 3.32673C19.3191 3.30053 19.9216 3.32673 20.3145 3.32673C20.49 3.31293 20.6664 3.33735 20.8316 3.39829C20.9968 3.45924 21.1467 3.55526 21.2712 3.67975C21.3957 3.80423 21.4917 3.95423 21.5527 4.11939C21.6136 4.28456 21.638 4.46097 21.6243 4.63648C21.6243 5.48783 21.6243 6.33917 21.6243 7.17741C21.6105 7.94173 21.2963 8.66988 20.7496 9.20426C20.203 9.73864 19.4679 10.0363 18.7035 10.0327H9.60068C9.21602 10.0379 8.83412 9.96703 8.47692 9.82421C8.11972 9.68139 7.79425 9.46941 7.51921 9.20045C7.24416 8.93149 7.02496 8.61084 6.87419 8.25693C6.72341 7.90301 6.64404 7.5228 6.64062 7.13812C6.64062 6.31297 6.64062 5.50092 6.64062 4.67578C6.64062 4.32841 6.77862 3.99526 7.02425 3.74964C7.26987 3.50401 7.60301 3.36602 7.95038 3.36602L9.74475 3.35292Z" fill="#fff"/>
</g>
<defs>
<clipPath id="clip0_753_1051">
<rect width="40" height="40" fill="white"/>
</clipPath>
</defs>
</svg>
