<svg width="28" height="28" viewBox="0 0 28 28" fill="none" xmlns="http://www.w3.org/2000/svg">
<path d="M23.8 14C23.8 13.6287 23.9475 13.2726 24.2101 13.0101C24.4726 12.7475 24.8287 12.6 25.2 12.6H26.6C26.9713 12.6 27.3274 12.7475 27.5899 13.0101C27.8525 13.2726 28 13.6287 28 14C28 14.3713 27.8525 14.7274 27.5899 14.9899C27.3274 15.2525 26.9713 15.4 26.6 15.4H25.2C24.8287 15.4 24.4726 15.2525 24.2101 14.9899C23.9475 14.7274 23.8 14.3713 23.8 14ZM22.904 21L23.898 21.994C24.1588 22.2563 24.3051 22.6111 24.3051 22.981C24.3051 23.3509 24.1588 23.7057 23.898 23.968C23.6357 24.2288 23.2809 24.3751 22.911 24.3751C22.5411 24.3751 22.1863 24.2288 21.924 23.968L20.93 22.974C20.7006 22.7062 20.5808 22.3617 20.5944 22.0093C20.608 21.657 20.7541 21.3227 21.0034 21.0734C21.2527 20.8241 21.587 20.678 21.9393 20.6644C22.2917 20.6508 22.6362 20.7706 22.904 21ZM14 4.2C13.6287 4.2 13.2726 4.0525 13.0101 3.78995C12.7475 3.5274 12.6 3.1713 12.6 2.8V1.4C12.6 1.0287 12.7475 0.672601 13.0101 0.41005C13.2726 0.1475 13.6287 0 14 0C14.3713 0 14.7274 0.1475 14.9899 0.41005C15.2525 0.672601 15.4 1.0287 15.4 1.4V2.8C15.4 3.1713 15.2525 3.5274 14.9899 3.78995C14.7274 4.0525 14.3713 4.2 14 4.2ZM6.076 7.476C5.70872 7.47445 5.35676 7.32864 5.096 7.07L4.102 6.076C3.95545 5.95049 3.83642 5.79605 3.75239 5.62236C3.66835 5.44867 3.62113 5.25948 3.61368 5.06667C3.60624 4.87387 3.63872 4.6816 3.70911 4.50195C3.77949 4.32229 3.88625 4.15913 4.02269 4.02269C4.15913 3.88625 4.32229 3.77949 4.50195 3.70911C4.6816 3.63872 4.87387 3.60623 5.06668 3.61368C5.25948 3.62113 5.44867 3.66835 5.62236 3.75238C5.79605 3.83642 5.95049 3.95545 6.076 4.102L7 5.096C7.26075 5.35831 7.40711 5.71314 7.40711 6.083C7.40711 6.45286 7.26075 6.80769 7 7.07C6.75319 7.31551 6.42377 7.46025 6.076 7.476ZM22.876 7.07C22.6152 7.32864 22.2633 7.47445 21.896 7.476C21.7118 7.47707 21.5291 7.44175 21.3585 7.37208C21.188 7.30241 21.0328 7.19975 20.902 7.07C20.6412 6.80769 20.4949 6.45286 20.4949 6.083C20.4949 5.71314 20.6412 5.35831 20.902 5.096L21.896 4.102C22.0256 3.97055 22.1799 3.86591 22.3499 3.79406C22.52 3.72222 22.7025 3.68457 22.8871 3.68327C23.0717 3.68197 23.2548 3.71704 23.4258 3.78649C23.5969 3.85593 23.7525 3.95839 23.884 4.088C24.0155 4.21761 24.1201 4.37185 24.1919 4.5419C24.2638 4.71196 24.3014 4.8945 24.3027 5.0791C24.3054 5.45192 24.1598 5.81052 23.898 6.076L22.876 7.07ZM1.4 12.6H2.8C3.1713 12.6 3.5274 12.7475 3.78995 13.0101C4.0525 13.2726 4.2 13.6287 4.2 14C4.2 14.3713 4.0525 14.7274 3.78995 14.9899C3.5274 15.2525 3.1713 15.4 2.8 15.4H1.4C1.0287 15.4 0.672602 15.2525 0.410049 14.9899C0.147499 14.7274 0 14.3713 0 14C0 13.6287 0.147499 13.2726 0.410049 13.0101C0.672602 12.7475 1.0287 12.6 1.4 12.6ZM5.096 21C5.36198 20.8521 5.66893 20.7948 5.97036 20.837C6.27178 20.8791 6.55127 21.0183 6.76648 21.2335C6.9817 21.4487 7.12091 21.7282 7.16305 22.0296C7.20518 22.3311 7.14795 22.638 7 22.904L6.006 23.898C5.74369 24.1588 5.38886 24.3051 5.019 24.3051C4.64914 24.3051 4.29431 24.1588 4.032 23.898C3.77125 23.6357 3.62489 23.2809 3.62489 22.911C3.62489 22.5411 3.77125 22.1863 4.032 21.924L5.096 21ZM14 6.3C15.5229 6.3 17.0116 6.7516 18.2779 7.59768C19.5441 8.44377 20.5311 9.64635 21.1139 11.0533C21.6967 12.4603 21.8492 14.0085 21.552 15.5022C21.2549 16.9958 20.5216 18.3679 19.4447 19.4447C18.3679 20.5216 16.9958 21.2549 15.5022 21.552C14.0085 21.8492 12.4603 21.6967 11.0533 21.1139C9.64635 20.5311 8.44377 19.5441 7.59768 18.2779C6.7516 17.0116 6.3 15.5229 6.3 14C6.3037 11.959 7.11614 10.0026 8.55937 8.55937C10.0026 7.11614 11.959 6.3037 14 6.3ZM14 18.9C14.9691 18.9 15.9165 18.6126 16.7223 18.0742C17.5281 17.5358 18.1561 16.7705 18.527 15.8751C18.8979 14.9798 18.9949 13.9946 18.8058 13.0441C18.6168 12.0935 18.1501 11.2205 17.4648 10.5352C16.7795 9.8499 15.9065 9.38322 14.9559 9.19415C14.0054 9.00508 13.0202 9.10212 12.1249 9.47299C11.2295 9.84386 10.4642 10.4719 9.9258 11.2777C9.38738 12.0835 9.1 13.0309 9.1 14C9.1 15.2996 9.61625 16.5459 10.5352 17.4648C11.4541 18.3838 12.7004 18.9 14 18.9ZM14 23.8C14.3713 23.8 14.7274 23.9475 14.9899 24.21C15.2525 24.4726 15.4 24.8287 15.4 25.2V26.6C15.4 26.9713 15.2525 27.3274 14.9899 27.59C14.7274 27.8525 14.3713 28 14 28C13.6287 28 13.2726 27.8525 13.0101 27.59C12.7475 27.3274 12.6 26.9713 12.6 26.6V25.2C12.6 24.8287 12.7475 24.4726 13.0101 24.21C13.2726 23.9475 13.6287 23.8 14 23.8Z" fill="white"/>
</svg>
