<svg width="21" height="17" viewBox="0 0 21 17" fill="none" xmlns="http://www.w3.org/2000/svg">
<path d="M20.0256 2.46698C19.297 2.78974 18.5242 3.0015 17.7328 3.09521C18.5658 2.59668 19.1891 1.81229 19.4865 0.888227C18.7034 1.35292 17.8467 1.68037 16.9533 1.85644C16.3516 1.21781 15.5563 0.795154 14.6903 0.653824C13.8243 0.512494 12.9359 0.660358 12.1624 1.07456C11.3889 1.48876 10.7733 2.14622 10.4109 2.94532C10.0485 3.74442 9.95942 4.64064 10.1574 5.49545C8.5713 5.41598 7.01962 5.0038 5.60314 4.28569C4.18666 3.56757 2.93704 2.55957 1.93544 1.32714C1.42603 2.2056 1.27018 3.24505 1.49954 4.23428C1.7289 5.22351 2.32627 6.08832 3.17028 6.65298C2.53657 6.63204 1.91708 6.45976 1.36355 6.15053C1.36355 6.16691 1.36355 6.18394 1.36355 6.20097C1.36371 7.12208 1.68244 8.01479 2.26569 8.7277C2.84895 9.44062 3.66082 9.92987 4.56364 10.1125C3.97598 10.2713 3.3598 10.2937 2.76216 10.178C3.01732 10.9703 3.51356 11.6632 4.18157 12.1599C4.84958 12.6566 5.65603 12.9322 6.48829 12.9484C5.07525 14.0575 3.3302 14.659 1.53387 14.6562C1.21588 14.658 0.898049 14.6412 0.582031 14.6057C2.40588 15.7778 4.52861 16.4 6.6966 16.398C14.0336 16.398 18.046 10.3195 18.046 5.04868C18.046 4.87399 18.042 4.70192 18.0342 4.53247C18.8152 3.96798 19.4894 3.26877 20.025 2.46764" fill="white"/>
</svg>
