<svg width="38" height="38" viewBox="0 0 38 38" fill="none" xmlns="http://www.w3.org/2000/svg">
<g id="Vimeo" clip-path="url(#clip0_788_1701)">
<path id="Vector" d="M0 11.4475L1.53425 13.4687C1.53425 13.4687 4.71675 10.9583 5.776 12.2075C6.8495 13.4687 10.9131 28.6117 12.2574 31.4118C13.4306 33.8652 16.6867 37.1023 20.2445 34.7938C23.8355 32.471 35.6891 22.3488 37.8124 10.3717C39.9309 -1.5841 23.5244 0.919155 21.8049 11.3407C26.1321 8.74241 28.4644 12.4047 26.2461 16.5443C24.0231 20.7005 21.983 23.4104 20.9261 23.4104C19.8882 23.4104 19.0665 20.6222 17.8505 15.7819C16.6036 10.7683 16.6036 1.72903 11.3881 2.75503C6.45762 3.72878 0 11.4475 0 11.4475Z" fill="#00BCD4"/>
</g>
<defs>
<clipPath id="clip0_788_1701">
<rect width="38" height="38" fill="white"/>
</clipPath>
</defs>
</svg>
